<?xml version="1.0" encoding="utf-8"?>
<!-- Generator: Adobe Illustrator 18.0.0, SVG Export Plug-In . SVG Version: 6.00 Build 0)  -->
<!DOCTYPE svg PUBLIC "-//W3C//DTD SVG 1.1//EN" "http://www.w3.org/Graphics/SVG/1.1/DTD/svg11.dtd" [
	<!ENTITY ns_extend "http://ns.adobe.com/Extensibility/1.0/">
	<!ENTITY ns_ai "http://ns.adobe.com/AdobeIllustrator/10.0/">
	<!ENTITY ns_graphs "http://ns.adobe.com/Graphs/1.0/">
	<!ENTITY ns_vars "http://ns.adobe.com/Variables/1.0/">
	<!ENTITY ns_imrep "http://ns.adobe.com/ImageReplacement/1.0/">
	<!ENTITY ns_sfw "http://ns.adobe.com/SaveForWeb/1.0/">
	<!ENTITY ns_custom "http://ns.adobe.com/GenericCustomNamespace/1.0/">
	<!ENTITY ns_adobe_xpath "http://ns.adobe.com/XPath/1.0/">
]>
<svg version="1.1" id="Layer_1" xmlns:x="&ns_extend;" xmlns:i="&ns_ai;" xmlns:graph="&ns_graphs;"
	 xmlns="http://www.w3.org/2000/svg" xmlns:xlink="http://www.w3.org/1999/xlink" x="0px" y="0px" viewBox="0 0 36 36"
	 enable-background="new 0 0 36 36" xml:space="preserve">
<metadata>
	<sfw  xmlns="&ns_sfw;">
		<slices></slices>
		<sliceSourceBounds  height="18.2" width="35.8" x="0.1" y="8.9" bottomLeftOrigin="true"></sliceSourceBounds>
	</sfw>
</metadata>
<g>
	<g>
		<g>
			<g>
				<path fill="#00B8D4" d="M2.1,8.9c-1.2,0-2,0.8-2,1.8v14.6c0,1,1,1.8,2,1.8h10.3c1,0,1.8-0.7,2-1.7l0.5-3.1
					c0.2-1.5,1.7-2.5,3.1-2.5V9.1H2.1V8.9z M9.7,21.5c-2.7,0-5-2.2-5-5c0-2.7,2.2-5,5-5s5,2.2,5,5C14.5,19.2,12.4,21.5,9.7,21.5z"/>
			</g>
		</g>
		<g>
			<path fill="#FF1744" d="M33.9,8.9H18v10.8l0,0c1.7,0,3,1,3.1,2.5l0.5,3.1c0.2,1,1,1.7,2,1.7h10.3c1.2,0,2-0.8,2-1.8V10.5
				C36.1,9.7,35.1,8.9,33.9,8.9z M26.3,21.5c-2.7,0-5-2.2-5-5c0-2.7,2.2-5,5-5s5,2.2,5,5C31.3,19.2,28.9,21.5,26.3,21.5z"/>
		</g>
	</g>
</g>
</svg>
