<?xml version="1.0" encoding="utf-8"?>
<!-- Generator: Adobe Illustrator 18.0.0, SVG Export Plug-In . SVG Version: 6.00 Build 0)  -->
<!DOCTYPE svg PUBLIC "-//W3C//DTD SVG 1.1//EN" "http://www.w3.org/Graphics/SVG/1.1/DTD/svg11.dtd">
<svg version="1.1" id="Layer_1" xmlns="http://www.w3.org/2000/svg" xmlns:xlink="http://www.w3.org/1999/xlink" x="0px" y="0px"
	 viewBox="0 0 46 30.4" enable-background="new 0 0 46 30.4" xml:space="preserve">
<g>
	<g>
		
			<rect x="37.1" y="3.4" transform="matrix(0.7071 0.7071 -0.7071 0.7071 15.0729 -28.6109)" opacity="0.5" fill="#FFFFFF" width="10" height="1"/>
		
			<rect x="37.1" y="9.8" transform="matrix(0.7071 -0.7071 0.7071 0.7071 5.0729 32.7531)" opacity="0.5" fill="#FFFFFF" width="10" height="1"/>
	</g>
	<g>
		
			<rect x="20.8" y="26" transform="matrix(-0.7071 0.7071 -0.7071 -0.7071 62.8094 27.0165)" opacity="0.5" fill="#FFFFFF" width="10" height="1"/>
		
			<rect x="14.4" y="26" transform="matrix(0.7071 0.7071 -0.7071 0.7071 24.4454 -5.9835)" opacity="0.5" fill="#FFFFFF" width="10" height="1"/>
	</g>
	<g>
		
			<rect x="-1.1" y="10.5" transform="matrix(-0.7071 -0.7071 0.7071 -0.7071 -1.1109 21.4602)" opacity="0.5" fill="#FFFFFF" width="10" height="1"/>
		
			<rect x="-1.1" y="4.1" transform="matrix(-0.7071 0.7071 -0.7071 -0.7071 9.8891 5.0962)" opacity="0.5" fill="#FFFFFF" width="10" height="1"/>
	</g>
	<rect x="20.5" y="7.8" transform="matrix(-0.7071 0.7071 -0.7071 -0.7071 49.4515 -3.818)" fill="#FF1744" width="10" height="1"/>
	<rect x="14.5" y="7.8" transform="matrix(0.7071 0.7071 -0.7071 0.7071 11.6084 -11.3596)" fill="#FF1744" width="10" height="1"/>
	<rect x="22" y="1.4" fill="#FF1744" width="1" height="10"/>
</g>
</svg>
