<?xml version="1.0" encoding="utf-8"?>
<!-- Generator: Adobe Illustrator 18.0.0, SVG Export Plug-In . SVG Version: 6.00 Build 0)  -->
<!DOCTYPE svg PUBLIC "-//W3C//DTD SVG 1.1//EN" "http://www.w3.org/Graphics/SVG/1.1/DTD/svg11.dtd">
<svg version="1.1" id="Layer_1" xmlns="http://www.w3.org/2000/svg" xmlns:xlink="http://www.w3.org/1999/xlink" x="0px" y="0px"
	 viewBox="0 0 46 30.4" enable-background="new 0 0 46 30.4" xml:space="preserve">
<g>
	<path d="M21.6,7.2l-7.4,7.4C14.1,14.7,14,14.8,14,15s0.1,0.3,0.2,0.4l7.4,7.4c0.2,0.2,0.6,0.2,0.8,0c0.1-0.1,0.2-0.2,0.2-0.4
		c0-0.2-0.1-0.3-0.2-0.4l-6.5-6.5h13.5c0.3,0,0.6-0.2,0.6-0.6s-0.2-0.6-0.6-0.6H15.9L22.4,8c0.2-0.2,0.2-0.6,0-0.8
		C22.2,6.9,21.8,7,21.6,7.2L21.6,7.2z"/>
</g>
</svg>
