<?xml version="1.0" encoding="utf-8"?>
<!-- Generator: Adobe Illustrator 18.0.0, SVG Export Plug-In . SVG Version: 6.00 Build 0)  -->
<!DOCTYPE svg PUBLIC "-//W3C//DTD SVG 1.1//EN" "http://www.w3.org/Graphics/SVG/1.1/DTD/svg11.dtd">
<svg version="1.1" id="Layer_1" xmlns="http://www.w3.org/2000/svg" xmlns:xlink="http://www.w3.org/1999/xlink" x="0px" y="0px"
	 viewBox="0 0 36 36" enable-background="new 0 0 36 36" xml:space="preserve">
<g>
	<g>
		<g>
			<path d="M29.1,7.4h-2.1V5.9c0-1.1-0.9-1.9-1.9-1.9l0,0c-1.1,0-1.9,0.9-1.9,1.9v1.5H13.1V5.9c0-1.1-0.9-1.9-1.9-1.9l0,0
				c-1.1,0-1.9,0.9-1.9,1.9v1.5H6.9C5.8,7.4,5,8.3,5,9.2v20.9C5,31.3,6,32,6.9,32h22.2c1.1,0,1.9-0.9,1.9-1.9V9.4
				C31,8.3,30.2,7.4,29.1,7.4z M27.8,29H8.2V13.1h19.4V29H27.8z"/>
			<path d="M11,20.4h3.4c0.2,0,0.4-0.2,0.4-0.4v-3.4c0-0.2-0.2-0.4-0.4-0.4H11c-0.2,0-0.4,0.2-0.4,0.4v3.4
				C10.6,20.2,10.8,20.4,11,20.4z"/>
			<path d="M16.4,20.4h3.4c0.2,0,0.2-0.2,0.2-0.4v-3.4c0-0.2,0-0.4-0.2-0.4h-3.4c-0.2,0-0.4,0.2-0.4,0.4v3.4
				C16,20.2,16.2,20.4,16.4,20.4z"/>
			<path d="M21.8,20.4h3.4c0.2,0,0.4-0.2,0.4-0.4v-3.4c0-0.2-0.2-0.4-0.4-0.4h-3.4c-0.2,0-0.4,0.2-0.4,0.4v3.4
				C21.5,20.2,21.6,20.4,21.8,20.4z"/>
			<path d="M11,25.8h3.4c0.2,0,0.4-0.2,0.4-0.4v-3.4c0-0.2-0.2-0.4-0.4-0.4H11c-0.2,0-0.4,0.2-0.4,0.4v3.4
				C10.6,25.7,10.8,25.8,11,25.8z"/>
			<path d="M16.4,25.8h3.4c0.2,0,0.2-0.2,0.2-0.4v-3.4c0-0.2,0-0.4-0.2-0.4h-3.4c-0.2,0-0.4,0.2-0.4,0.4v3.4
				C16,25.7,16.2,25.8,16.4,25.8z"/>
			<path d="M21.8,25.8h3.4c0.2,0,0.4-0.2,0.4-0.4v-3.4c0-0.2-0.2-0.4-0.4-0.4h-3.4c-0.2,0-0.4,0.2-0.4,0.4v3.4
				C21.5,25.7,21.6,25.8,21.8,25.8z"/>
		</g>
	</g>
</g>
</svg>
