<?xml version="1.0" encoding="utf-8"?>
<!-- Generator: Adobe Illustrator 18.0.0, SVG Export Plug-In . SVG Version: 6.00 Build 0)  -->
<!DOCTYPE svg PUBLIC "-//W3C//DTD SVG 1.1//EN" "http://www.w3.org/Graphics/SVG/1.1/DTD/svg11.dtd">
<svg version="1.1" id="Layer_1" xmlns="http://www.w3.org/2000/svg" xmlns:xlink="http://www.w3.org/1999/xlink" x="0px" y="0px"
	 viewBox="0 0 13.9 15" enable-background="new 0 0 13.9 15" xml:space="preserve">
<g>
	<g>
		<g>
			<path d="M12.9,1.8h-1.1V1c0-0.6-0.5-1-1-1h0c-0.6,0-1,0.5-1,1v0.8H4.3V1c0-0.6-0.5-1-1-1h0c-0.6,0-1,0.5-1,1v0.8H1
				c-0.6,0-1,0.5-1,1V14c0,0.6,0.5,1,1,1h11.9c0.6,0,1-0.5,1-1V2.9C13.9,2.3,13.5,1.8,12.9,1.8z M12.2,13.4H1.7V4.9h10.4V13.4z"/>
			<path d="M3.2,8.8H5c0.1,0,0.2-0.1,0.2-0.2V6.8c0-0.1-0.1-0.2-0.2-0.2H3.2C3.1,6.6,3,6.7,3,6.8v1.8C3,8.7,3.1,8.8,3.2,8.8z"/>
			<path d="M6.1,8.8h1.8C8,8.8,8,8.7,8,8.6V6.8C8,6.7,8,6.6,7.9,6.6H6.1C6,6.6,5.9,6.7,5.9,6.8v1.8C5.9,8.7,6,8.8,6.1,8.8z"/>
			<path d="M9,8.8h1.8c0.1,0,0.2-0.1,0.2-0.2V6.8c0-0.1-0.1-0.2-0.2-0.2H9c-0.1,0-0.2,0.1-0.2,0.2v1.8C8.8,8.7,8.9,8.8,9,8.8z"/>
			<path d="M3.2,11.7H5c0.1,0,0.2-0.1,0.2-0.2V9.7c0-0.1-0.1-0.2-0.2-0.2H3.2C3.1,9.5,3,9.6,3,9.7v1.8C3,11.6,3.1,11.7,3.2,11.7z"/>
			<path d="M6.1,11.7h1.8C8,11.7,8,11.6,8,11.5V9.7C8,9.6,8,9.5,7.9,9.5H6.1C6,9.5,5.9,9.6,5.9,9.7v1.8C5.9,11.6,6,11.7,6.1,11.7z"
				/>
			<path d="M9,11.7h1.8c0.1,0,0.2-0.1,0.2-0.2V9.7c0-0.1-0.1-0.2-0.2-0.2H9c-0.1,0-0.2,0.1-0.2,0.2v1.8C8.8,11.6,8.9,11.7,9,11.7z"
				/>
		</g>
	</g>
</g>
</svg>
