<!-- Generator: Adobe Illustrator 18.0.0, SVG Export Plug-In  -->
<svg version="1.1"
   xmlns="http://www.w3.org/2000/svg" xmlns:xlink="http://www.w3.org/1999/xlink" xmlns:a="http://ns.adobe.com/AdobeSVGViewerExtensions/3.0/"
   x="0px" y="0px" width="61.5px" height="61.5px" viewBox="0 0 61.5 61.5" enable-background="new 0 0 61.5 61.5"
   xml:space="preserve">
<defs>
</defs>
<g>
  <rect x="18.3" y="5.2" transform="matrix(0.7071 -0.7071 0.7071 0.7071 3.5625 19.9142)" fill="#FFFFFF" width="15" height="1"/>
  <rect x="28.2" y="5.2" transform="matrix(-0.7071 -0.7071 0.7071 -0.7071 56.9767 34.914)" fill="#FFFFFF" width="15" height="1"/>
  
    <rect x="48.4" y="25.3" transform="matrix(0.7071 0.7071 -0.7071 0.7071 34.6249 -31.9522)" fill="#FFFFFF" width="15" height="1"/>
  <rect x="48.4" y="35.2" transform="matrix(0.7071 -0.7071 0.7071 0.7071 -8.8898 49.9766)" fill="#FFFFFF" width="15" height="1"/>
  
    <rect x="28.2" y="55.4" transform="matrix(-0.7071 0.7071 -0.7071 -0.7071 100.4914 70.1398)" fill="#FFFFFF" width="15" height="1"/>
  <rect x="18.3" y="55.4" transform="matrix(0.7071 0.7071 -0.7071 0.7071 47.0772 -1.8898)" fill="#FFFFFF" width="15" height="1"/>
  
    <rect x="-1.8" y="35.2" transform="matrix(-0.7071 -0.7071 0.7071 -0.7071 -15.6004 64.9766)" fill="#FFFFFF" width="15" height="1"/>
  
    <rect x="-1.8" y="25.3" transform="matrix(-0.7071 0.7071 -0.7071 -0.7071 27.9143 40.0772)" fill="#FFFFFF" width="15" height="1"/>
</g>
<g>
  <rect x="20.8" y="29.9" transform="matrix(0.7071 -0.7071 0.7071 0.7071 -12.8163 30.799)" fill="#FF1744" width="20" height="2"/>
  
    <rect x="20.8" y="29.9" transform="matrix(0.7071 0.7071 -0.7071 0.7071 30.8407 -12.7157)" fill="#FF1744" width="20" height="2"/>
</g>
</svg>
