<?xml version="1.0" encoding="utf-8"?>
<!-- Generator: Adobe Illustrator 18.0.0, SVG Export Plug-In . SVG Version: 6.00 Build 0)  -->
<!DOCTYPE svg PUBLIC "-//W3C//DTD SVG 1.1//EN" "http://www.w3.org/Graphics/SVG/1.1/DTD/svg11.dtd">
<svg version="1.1" id="Layer_1" xmlns="http://www.w3.org/2000/svg" xmlns:xlink="http://www.w3.org/1999/xlink" x="0px" y="0px"
	 viewBox="0 0 50 35.4" enable-background="new 0 0 50 35.4" xml:space="preserve">
<g>
	<g>
		<path d="M25,25.7c4.4,0,8-3.6,8-8s-3.6-8-8-8s-8,3.6-8,8S20.6,25.7,25,25.7z M25,10.9c3.7,0,6.7,3,6.7,6.7s-3,6.7-6.7,6.7
			s-6.7-3-6.7-6.7S21.3,10.9,25,10.9z"/>
		<path d="M24,19l2.7,2.1c0.1,0.1,0.3,0.1,0.4,0.1c0.2,0,0.4-0.1,0.5-0.2c0.2-0.3,0.2-0.7-0.1-0.9L25,18.2v-4.3
			c0-0.3-0.3-0.6-0.6-0.6s-0.6,0.3-0.6,0.6v4.6C23.7,18.7,23.8,18.9,24,19z"/>
	</g>
</g>
</svg>
