<?xml version="1.0" encoding="utf-8"?>
<!-- Generator: Adobe Illustrator 18.0.0, SVG Export Plug-In . SVG Version: 6.00 Build 0)  -->
<!DOCTYPE svg PUBLIC "-//W3C//DTD SVG 1.1//EN" "http://www.w3.org/Graphics/SVG/1.1/DTD/svg11.dtd">
<svg version="1.1" id="Layer_1" xmlns="http://www.w3.org/2000/svg" xmlns:xlink="http://www.w3.org/1999/xlink" x="0px" y="0px"
	 viewBox="0 0 36 36" enable-background="new 0 0 36 36" xml:space="preserve">
<g>
	<g>
		<path d="M18,32c7.7,0,14-6.3,14-14S25.7,4,18,4S4,10.3,4,18S10.3,32,18,32z M18,6.1c6.5,0,11.7,5.3,11.7,11.7S24.5,29.5,18,29.5
			S6.3,24.3,6.3,17.8S11.5,6.1,18,6.1z"/>
		<path d="M16.3,20.3l4.7,3.7c0.2,0.2,0.5,0.2,0.7,0.2c0.4,0,0.7-0.2,0.9-0.4c0.4-0.5,0.4-1.2-0.2-1.6L18,18.9v-7.5
			c0-0.5-0.5-1.1-1-1.1c-0.5,0-1.1,0.5-1.1,1.1v8C15.7,19.8,15.9,20.1,16.3,20.3z"/>
	</g>
</g>
</svg>
