<?xml version="1.0" encoding="utf-8"?>
<!-- Generator: Adobe Illustrator 18.0.0, SVG Export Plug-In . SVG Version: 6.00 Build 0)  -->
<!DOCTYPE svg PUBLIC "-//W3C//DTD SVG 1.1//EN" "http://www.w3.org/Graphics/SVG/1.1/DTD/svg11.dtd">
<svg version="1.1" id="Layer_1" xmlns="http://www.w3.org/2000/svg" xmlns:xlink="http://www.w3.org/1999/xlink" x="0px" y="0px"
	 viewBox="0 0 50 35.4" enable-background="new 0 0 50 35.4" xml:space="preserve">
<g>
	<g>
		<path d="M27.8,19.6c1.5-0.9,2.5-2.6,2.5-4.5c0-2.9-2.4-5.3-5.3-5.3s-5.3,2.4-5.3,5.3c0,1.9,1,3.6,2.5,4.5c-2.7,1-4.7,3.3-5.2,6.1
			h1.3c0.7-3.1,3.4-5.3,6.7-5.3s6,2.3,6.7,5.3H33C32.5,22.8,30.5,20.5,27.8,19.6z M21,15c0-2.2,1.8-4,4-4s4,1.8,4,4s-1.8,4-4,4
			S21,17.2,21,15z"/>
	</g>
</g>
</svg>
