<?xml version="1.0" encoding="utf-8"?>
<!-- Generator: Adobe Illustrator 18.0.0, SVG Export Plug-In . SVG Version: 6.00 Build 0)  -->
<!DOCTYPE svg PUBLIC "-//W3C//DTD SVG 1.1//EN" "http://www.w3.org/Graphics/SVG/1.1/DTD/svg11.dtd">
<svg version="1.1" id="Layer_1" xmlns="http://www.w3.org/2000/svg" xmlns:xlink="http://www.w3.org/1999/xlink" x="0px" y="0px"
	 viewBox="0 0 36 36" enable-background="new 0 0 36 36" xml:space="preserve">
<g>
	<g>
		<path d="M22.9,21.3c2.6-1.6,4.4-4.6,4.4-7.9C27.3,8.2,23.1,4,18,4s-9.3,4.2-9.3,9.3c0,3.3,1.8,6.3,4.4,7.9C8.3,23,4.8,27.1,3.9,32
			h2.3c1.2-5.5,6-9.3,11.8-9.3s10.6,4.1,11.8,9.3h2.3C31.2,26.9,27.7,22.8,22.9,21.3z M11,13.2c0-3.9,3.2-7,7-7s7,3.2,7,7
			s-3.2,7-7,7S11,17,11,13.2z"/>
	</g>
</g>
</svg>
