<?xml version="1.0" encoding="utf-8"?>
<!-- Generator: Adobe Illustrator 18.0.0, SVG Export Plug-In . SVG Version: 6.00 Build 0)  -->
<!DOCTYPE svg PUBLIC "-//W3C//DTD SVG 1.1//EN" "http://www.w3.org/Graphics/SVG/1.1/DTD/svg11.dtd">
<svg version="1.1" id="Layer_1" xmlns="http://www.w3.org/2000/svg" xmlns:xlink="http://www.w3.org/1999/xlink" x="0px" y="0px"
	 viewBox="0 0 124 61.5" enable-background="new 0 0 124 61.5" xml:space="preserve">
<g>
	<g>
		<path fill="#ED1944" d="M76.8,42.9c-1,0.9-2,1.6-3.5,1.6c-2.3,0-4.1-1.9-4.1-4.4c0-2.5,1.8-4.4,4.1-4.4c1.3,0,2.3,0.4,3.4,1.5
			l0.4,0.3l1.1-1.8l-0.2-0.2c-1-0.9-2.3-1.8-4.5-1.8c-3.5,0-6.3,2.8-6.3,6.4c0,3.7,2.7,6.4,6.2,6.4c1.9,0,3.4-0.6,4.7-1.9l0.2-0.2
			l-1.1-1.8L76.8,42.9z"/>
		<path fill="#ED1944" d="M91.4,41c0,2.2-1.1,3.5-3.1,3.5c-2,0-3.2-1.3-3.2-3.5v-6.3l-2.1-1V41c0,3.4,2,5.5,5.2,5.5
			c3.3,0,5.2-2.1,5.2-5.6v-7.2l-2.1,0.8V41z"/>
		<path fill="#ED1944" d="M107.4,39.8c0.9-0.6,1.3-1.5,1.3-2.6c0-0.9-0.3-1.6-0.9-2.2c-0.7-0.8-1.9-1.2-3.3-1.2h-4.7l-0.9,2h5.4
			c1.4,0,2.2,0.6,2.2,1.5c0,1.6-1.6,1.7-2.3,1.7h-5.1v7.2h5.6c2.8,0,4.6-1.4,4.6-3.6C109.4,41.4,108.7,40.4,107.4,39.8z M107.3,42.6
			c0,1.6-1.7,1.7-2.5,1.7h-3.5V41h3.3C105.8,41,107.3,41.3,107.3,42.6z"/>
		<polygon fill="#ED1944" points="116.6,44.3 116.6,41 122.4,41 123.2,39 116.6,39 116.6,35.8 123.1,35.8 123.9,33.8 114.5,33.8 
			114.5,46.3 123.2,46.3 124,44.3 		"/>
	</g>
	<path fill="#00B5D1" d="M33.8,0.1L1,27.3l-0.3,0.3l26.9,33.9l34.8-27.6L33.8,0.1z M19.7,40.1L2.3,27.7l23.3-3.5L19.7,40.1z
		 M20.4,40L26,24l17.1-2.6l-6.1,15.9L20.4,40z M36.7,37.9l-8.4,21.6l-8.2-19L36.7,37.9z M26.5,23.4l8-21.8l8.9,19.1L26.5,23.4z
		 M43.9,21.2l16.5,12.3l-22.7,3.7L43.9,21.2z M44.1,20.6L35.4,2l25.2,30.9L44.1,20.6z M25.8,23.5L2,27.2L34,1.2L25.8,23.5z
		 M19.4,40.7l8.3,19L2.1,28.3L19.4,40.7z M37.4,37.8l23.6-4L28.7,60.2L37.4,37.8z"/>
	<path fill="#ED1944" d="M33.9,0L0.3,27.3L0,27.6l27.6,33.9l33.9-27.6L33.9,0z M19,40.2L1.8,27.8l23.1-3.6L19,40.2z M19.8,40
		l5.8-15.9l16.8-2.6l-6.2,15.8L19.8,40z M36,38l-8.4,21.5l-8.2-18.8L36,38z M25.9,23.5l8-21.8l8.9,19.1L25.9,23.5z M43.2,21.3
		l16.5,12.3L37,37.2L43.2,21.3z M43.5,20.7L34.8,2.1L59.9,33L43.5,20.7z M25.2,23.6L1.4,27.3l32-26.1L25.2,23.6z M18.8,40.8l8.3,19
		L1.5,28.4L18.8,40.8z M36.7,37.9l23.4-3.8L28,60.3L36.7,37.9z"/>
	<g>
		<path fill="#FFFFFF" d="M36.6,34.2l-3.3,8.4L26.1,24h-5.4l10.2,25.4h5.1l6.1-15.2H36.6z"/>
		<path fill="#FFFFFF" d="M62.9,49.4h-5.8l-6.1-10.5h-6.4l1.9-4.7h7c2,0,3.1-1,3.1-2.8c0-1.7-1.1-2.5-3.1-2.6H38.8l1.9-4.8h11.8
			c5.9,0,8.9,2.4,8.9,7.3c0,3.7-1.6,6-4.7,7L62.9,49.4z"/>
	</g>
</g>
</svg>
