<?xml version="1.0" encoding="utf-8"?>
<!-- Generator: Adobe Illustrator 18.0.0, SVG Export Plug-In . SVG Version: 6.00 Build 0)  -->
<!DOCTYPE svg PUBLIC "-//W3C//DTD SVG 1.1//EN" "http://www.w3.org/Graphics/SVG/1.1/DTD/svg11.dtd">
<svg version="1.1" id="Layer_1" xmlns="http://www.w3.org/2000/svg" xmlns:xlink="http://www.w3.org/1999/xlink" x="0px" y="0px"
	 viewBox="0 0 36 36" enable-background="new 0 0 36 36" xml:space="preserve">
<g>
	<path fill="#212121" d="M10.3,22.3c2.6,3.1,5.7,5.6,9.2,7.1c1.4,0.7,3.1,1.4,5.2,1.6c0.2,0,0.2,0,0.3,0c1.4,0,2.4-0.5,3.3-1.4l0,0
		c0.3-0.3,0.7-0.7,1-1c0.2-0.2,0.5-0.5,0.7-0.7c1.2-1.2,1.2-2.8,0-3.8l-3.3-3.3c-0.5-0.5-1.2-0.9-1.9-0.9s-1.4,0.3-1.9,0.9L21,22.6
		c-0.2-0.2-0.3-0.2-0.5-0.3c-0.2-0.2-0.3-0.2-0.5-0.3c-1.7-1-3.3-2.6-4.9-4.5c-0.7-1-1.2-1.7-1.7-2.6c0.5-0.5,1-0.9,1.4-1.4
		c0.2-0.2,0.3-0.3,0.5-0.5c0.5-0.5,0.9-1.2,0.9-1.9c0-0.7-0.3-1.4-0.9-1.9l-1.6-1.6c-0.2-0.2-0.3-0.3-0.5-0.5c-0.3-0.3-0.7-0.7-1-1
		C11.7,5.4,11,5,10.3,5S8.9,5.4,8.3,5.9L6.3,8C5.6,8.7,5,9.6,5,10.6c-0.2,1.2,0.2,2.6,0.7,4.3C6.6,17.2,8,19.7,10.3,22.3z M6.3,10.4
		c0-0.7,0.3-1.4,0.9-1.9l2.1-2.1c0.3-0.3,0.7-0.5,1-0.5s0.7,0.2,1,0.5c0.3,0.3,0.7,0.7,1,1c0.2,0.2,0.3,0.3,0.5,0.5l1.6,1.6
		c0.3,0.3,0.5,0.7,0.5,1c0,0.3-0.2,0.7-0.5,1c-0.2,0.2-0.3,0.3-0.5,0.5c-0.5,0.5-1,1-1.6,1.4l0,0c-0.5,0.5-0.3,0.9-0.3,1.2l0,0
		c0.3,1,1,1.9,1.9,3.1c1.6,2.1,3.3,3.5,5.2,4.7c0.2,0.2,0.5,0.3,0.7,0.3c0.2,0.2,0.3,0.2,0.5,0.3l0,0c0.2,0.2,0.3,0.2,0.5,0.2
		c0.3,0,0.7-0.3,0.9-0.3l2.1-2.1c0.3-0.3,0.7-0.5,1-0.5c0.3,0,0.7,0.2,1,0.5l3.3,3.3c0.7,0.7,0.7,1.4,0,2.1
		c-0.2,0.2-0.5,0.5-0.7,0.7c-0.3,0.3-0.7,0.7-1,1.2c-0.7,0.7-1.4,1-2.3,1c-0.2,0-0.2,0-0.3,0c-1.7-0.2-3.5-0.9-4.7-1.4
		c-3.3-1.6-6.3-4-8.7-6.8c-2.1-2.4-3.3-4.7-4.3-7.1C6.4,12.7,6.3,11.7,6.3,10.4z"/>
</g>
</svg>
