<!-- Generator: Adobe Illustrator 18.0.0, SVG Export Plug-In  -->
<svg version="1.1"
   xmlns="http://www.w3.org/2000/svg" xmlns:xlink="http://www.w3.org/1999/xlink" xmlns:a="http://ns.adobe.com/AdobeSVGViewerExtensions/3.0/"
   x="0px" y="0px" width="8px" height="15.8px" viewBox="0 0 8 15.8" enable-background="new 0 0 8 15.8" xml:space="preserve">
<defs>
</defs>
<g id="XMLID_1_">
  <g>
    <path id="XMLID_3_" fill="#00B8D4" d="M0.3,8.4H2v7.1c0,0.1,0.1,0.3,0.3,0.3h2.9c0.1,0,0.3-0.1,0.3-0.3V8.5h2
      c0.1,0,0.2-0.1,0.3-0.2L8,5.6c0-0.1,0-0.1-0.1-0.2c0-0.1-0.1-0.1-0.2-0.1H5.4V3.7c0-0.5,0.3-0.7,0.8-0.7c0.1,0,1.5,0,1.5,0
      C7.9,2.9,8,2.8,8,2.7V0.3C8,0.1,7.9,0,7.7,0H5.7c0,0,0,0-0.1,0C5.2,0,4,0.1,3,1C1.9,2,2,3.2,2.1,3.4v1.9H0.3C0.1,5.3,0,5.4,0,5.6
      v2.6C0,8.3,0.1,8.4,0.3,8.4z"/>
  </g>
</g>
</svg>
