<!-- Generator: Adobe Illustrator 18.0.0, SVG Export Plug-In  -->
<svg version="1.1"
   xmlns="http://www.w3.org/2000/svg" xmlns:xlink="http://www.w3.org/1999/xlink" xmlns:a="http://ns.adobe.com/AdobeSVGViewerExtensions/3.0/"
   x="0px" y="0px" width="13px" height="13px" viewBox="0 0 13 13" enable-background="new 0 0 13 13" xml:space="preserve">
<defs>
</defs>
<g id="XMLID_1_">
  <g>
    <path id="XMLID_3_" fill="#FF1744" d="M1.7,0h9.7C12.2,0,13,0.8,13,1.7v9.7c0,0.9-0.8,1.7-1.7,1.7H1.7C0.8,13,0,12.2,0,11.3V1.7
      C0,0.8,0.8,0,1.7,0z M9.5,1.4C9.1,1.4,8.9,1.7,8.9,2v1.4C8.9,3.8,9.1,4,9.5,4h1.5c0.3,0,0.6-0.3,0.6-0.6V2c0-0.3-0.3-0.6-0.6-0.6
      L9.5,1.4z M11.5,5.5h-1.1c0.1,0.4,0.2,0.7,0.2,1.1c0,2.2-1.8,3.9-4,3.9c-2.2,0-4-1.8-4-3.9c0-0.4,0.1-0.8,0.2-1.1H1.4V11
      c0,0.3,0.2,0.5,0.5,0.5H11c0.3,0,0.5-0.2,0.5-0.5V5.5z M6.5,3.9c-1.4,0-2.6,1.1-2.6,2.5C3.9,7.9,5.1,9,6.5,9C8,9,9.1,7.9,9.1,6.5
      C9.1,5.1,8,3.9,6.5,3.9z"/>
  </g>
</g>
</svg>
