<?xml version="1.0" encoding="utf-8"?>
<!-- Generator: Adobe Illustrator 18.0.0, SVG Export Plug-In . SVG Version: 6.00 Build 0)  -->
<!DOCTYPE svg PUBLIC "-//W3C//DTD SVG 1.1//EN" "http://www.w3.org/Graphics/SVG/1.1/DTD/svg11.dtd">
<svg version="1.1" id="Layer_1" xmlns="http://www.w3.org/2000/svg" xmlns:xlink="http://www.w3.org/1999/xlink" x="0px" y="0px"
	 viewBox="0 0 50 35.4" enable-background="new 0 0 50 35.4" xml:space="preserve">
<g>
	<g>
		<rect x="11.5" y="6.2" fill="#FFFFFF" width="28" height="25"/>
		<g>
			<g>
				<path fill="#FF1744" d="M39.6,0H10.4C4.6,0,0,4.6,0,10.4V25c0,5.7,4.6,10.4,10.4,10.4h29.2C45.4,35.4,50,30.7,50,25V10.4
					C50,4.6,45.4,0,39.6,0z M32.6,18.4l-13.7,6.5c-0.4,0.2-0.8-0.1-0.8-0.5V11c0-0.4,0.4-0.7,0.8-0.5l13.7,6.9
					C33,17.6,33,18.2,32.6,18.4z"/>
			</g>
		</g>
	</g>
</g>
</svg>
